HIERARCHY
ROOT hip
{
  OFFSET 166.863 85.7665 22.0684
  CHANNELS 6 Xposition Yposition Zposition Zrotation Xrotation Yrotation
  JOINT abdomen
  {
    OFFSET 0 20.6881 -0.73152
    CHANNELS 3 Zrotation Xrotation Yrotation
    JOINT chest
    {
      OFFSET 0 11.7043 -0.48768
      CHANNELS 3 Zrotation Xrotation Yrotation
      JOINT neck
      {
        OFFSET 0 22.1894 -2.19456
        CHANNELS 3 Zrotation Xrotation Yrotation
        JOINT head
        {
          OFFSET -0.24384 7.07133 1.2192
          CHANNELS 3 Zrotation Xrotation Yrotation
          JOINT leftEye
          {
            OFFSET 4.14528 8.04674 8.04672
            CHANNELS 3 Zrotation Xrotation Yrotation
            End Site
            {
              OFFSET 1 0 0
            }
          }
          JOINT rightEye
          {
            OFFSET -3.6576 8.04674 8.04672
            CHANNELS 3 Zrotation Xrotation Yrotation
            End Site
            {
              OFFSET 1 0 0
            }
          }
        }
      }
      JOINT rCollar
      {
        OFFSET -2.68224 19.2634 -4.8768
        CHANNELS 3 Zrotation Xrotation Yrotation
        JOINT rShldr
        {
          OFFSET -8.77824 -1.95073 1.46304
          CHANNELS 3 Zrotation Xrotation Yrotation
          JOINT rForeArm
          {
            OFFSET -28.1742 -1.7115 0.48768
            CHANNELS 3 Zrotation Xrotation Yrotation
            JOINT rHand
            {
              OFFSET -22.5879 0.773209 7.07136
              CHANNELS 3 Zrotation Xrotation Yrotation
              JOINT rThumb1
              {
                OFFSET -1.2192 -0.487915 3.41376
                CHANNELS 3 Zrotation Xrotation Yrotation
                JOINT rThumb2
                {
                  OFFSET -3.37035 -0.52449 3.41376
                  CHANNELS 3 Zrotation Xrotation Yrotation
                  End Site
                  {
                    OFFSET -1.78271 -1.18214 1.43049
                  }
                }
              }
              JOINT rIndex1
              {
                OFFSET -7.75947 0.938293 5.60832
                CHANNELS 3 Zrotation Xrotation Yrotation
                JOINT rIndex2
                {
                  OFFSET -2.54057 -0.884171 1.56538
                  CHANNELS 3 Zrotation Xrotation Yrotation
                  End Site
                  {
                    OFFSET -1.62519 -0.234802 1.16502
                  }
                }
              }
              JOINT rMid1
              {
                OFFSET -8.24714 1.18213 3.41376
                CHANNELS 3 Zrotation Xrotation Yrotation
                JOINT rMid2
                {
                  OFFSET -3.10165 -0.590103 1.0647
                  CHANNELS 3 Zrotation Xrotation Yrotation
                  End Site
                  {
                    OFFSET -2.48547 -0.328903 0.83742
                  }
                }
              }
              JOINT rRing1
              {
                OFFSET -8.82822 0.546677 1.51678
                CHANNELS 3 Zrotation Xrotation Yrotation
                JOINT rRing2
                {
                  OFFSET -2.60934 -0.819778 -0.0198488
                  CHANNELS 3 Zrotation Xrotation Yrotation
                  End Site
                  {
                    OFFSET -2.33842 -0.294052 0.168128
                  }
                }
              }
              JOINT rPinky1
              {
                OFFSET -8.27202 -0.0477905 -0.4584
                CHANNELS 3 Zrotation Xrotation Yrotation
                JOINT rPinky2
                {
                  OFFSET -1.82734 -0.647385 -0.700984
                  CHANNELS 3 Zrotation Xrotation Yrotation
                  End Site
                  {
                    OFFSET -1.69225 -0.51767 -0.607171
                  }
                }
              }
            }
          }
        }
      }
      JOINT lCollar
      {
        OFFSET 2.68224 19.2634 -4.8768
        CHANNELS 3 Zrotation Xrotation Yrotation
        JOINT lShldr
        {
          OFFSET 8.77824 -1.95073 1.46304
          CHANNELS 3 Zrotation Xrotation Yrotation
          JOINT lForeArm
          {
            OFFSET 28.1742 -1.7115 0.48768
            CHANNELS 3 Zrotation Xrotation Yrotation
            JOINT lHand
            {
              OFFSET 22.5879 0.773209 7.07136
              CHANNELS 3 Zrotation Xrotation Yrotation
              JOINT lThumb1
              {
                OFFSET 1.2192 -0.487915 3.41376
                CHANNELS 3 Zrotation Xrotation Yrotation
                JOINT lThumb2
                {
                  OFFSET 3.37035 -0.52449 3.41376
                  CHANNELS 3 Zrotation Xrotation Yrotation
                  End Site
                  {
                    OFFSET 1.78271 -1.18214 1.43049
                  }
                }
              }
              JOINT lIndex1
              {
                OFFSET 7.75947 0.938293 5.60832
                CHANNELS 3 Zrotation Xrotation Yrotation
                JOINT lIndex2
                {
                  OFFSET 2.54057 -0.884171 1.56538
                  CHANNELS 3 Zrotation Xrotation Yrotation
                  End Site
                  {
                    OFFSET 1.62519 -0.234802 1.16502
                  }
                }
              }
              JOINT lMid1
              {
                OFFSET 8.24714 1.18213 3.41376
                CHANNELS 3 Zrotation Xrotation Yrotation
                JOINT lMid2
                {
                  OFFSET 3.10165 -0.590103 1.0647
                  CHANNELS 3 Zrotation Xrotation Yrotation
                  End Site
                  {
                    OFFSET 2.48547 -0.328903 0.83742
                  }
                }
              }
              JOINT lRing1
              {
                OFFSET 8.82822 0.546677 1.51678
                CHANNELS 3 Zrotation Xrotation Yrotation
                JOINT lRing2
                {
                  OFFSET 2.60934 -0.819778 -0.0198488
                  CHANNELS 3 Zrotation Xrotation Yrotation
                  End Site
                  {
                    OFFSET 2.33842 -0.294052 0.168128
                  }
                }
              }
              JOINT lPinky1
              {
                OFFSET 8.27202 -0.0477905 -0.4584
                CHANNELS 3 Zrotation Xrotation Yrotation
                JOINT lPinky2
                {
                  OFFSET 1.82734 -0.647385 -0.700984
                  CHANNELS 3 Zrotation Xrotation Yrotation
                  End Site
                  {
                    OFFSET 1.69225 -0.51767 -0.607171
                  }
                }
              }
            }
          }
        }
      }
    }
  }
  JOINT rButtock
  {
    OFFSET -8.77824 4.35084 1.2192
    CHANNELS 3 Zrotation Xrotation Yrotation
    JOINT rThigh
    {
      OFFSET 0 -1.70687 -2.19456
      CHANNELS 3 Zrotation Xrotation Yrotation
      JOINT rShin
      {
        OFFSET 0 -36.8199 0.73152
        CHANNELS 3 Zrotation Xrotation Yrotation
        JOINT rFoot
        {
          OFFSET 0.73152 -45.1104 -5.12064
          CHANNELS 3 Zrotation Xrotation Yrotation
          End Site
          {
            OFFSET -1.1221 -3.69964 12.103
          }
        }
      }
    }
  }
  JOINT lButtock
  {
    OFFSET 8.77824 4.35084 1.2192
    CHANNELS 3 Zrotation Xrotation Yrotation
    JOINT lThigh
    {
      OFFSET 0 -1.70687 -2.19456
      CHANNELS 3 Zrotation Xrotation Yrotation
      JOINT lShin
      {
        OFFSET 0 -36.8199 0.73152
        CHANNELS 3 Zrotation Xrotation Yrotation
        JOINT lFoot
        {
          OFFSET -0.73152 -45.1104 -5.12064
          CHANNELS 3 Zrotation Xrotation Yrotation
          End Site
          {
            OFFSET 1.1221 -3.69964 12.103
          }
        }
      }
    }
  }
}
MOTION
Frames:	5
Frame Time:	0.00833333
47.0261 82.499 -2.09056 -7.3588 1.35499 103.792 2.07053 31.0284 -4.75275 1.96252 -3.7437 -0.62401 8.12414 2.44371 4.32974 -15.3228 -25.4983 3.56294 -0 0 0 -0 0 0 -6.66076e-014 -1.14579e-012 -1.41634e-014 77.6567 43.2857 -29.5461 -28.1589 -31.6618 69.9094 -0.755404 -23.8921 -3.56932 -1.03557e-009 2.36643e-010 -2.49811e-009 -1.73689e-009 4.10425e-010 -4.33816e-009 -1.03557e-009 2.3664e-010 -2.49812e-009 7.73091 5.47488 0.417314 -1.03557e-009 2.3664e-010 -2.49811e-009 2.90554 0.965183 0.102902 -1.03557e-009 2.36639e-010 -2.4981e-009 10.2786 0.731801 0.0259123 -1.03558e-009 2.36643e-010 -2.49809e-009 2.22167 -0.733487 -0.20892 -6.65824e-014 -1.1458e-012 -1.44616e-014 -68.6203 28.5535 9.32862 27.7359 -41.6274 -86.8908 0.490869 -19.5112 2.85445 8.45641e-010 1.95625e-009 4.98546e-009 1.39013e-009 3.40524e-009 8.62806e-009 8.4564e-010 1.95625e-009 4.98547e-009 -7.73091 5.47488 -0.417314 8.45642e-010 1.95625e-009 4.98547e-009 -2.90554 0.965183 -0.102902 8.45636e-010 1.95625e-009 4.98546e-009 -10.2786 0.731801 -0.0259123 8.45648e-010 1.95625e-009 4.98546e-009 -2.22167 -0.733487 0.20892 -2.03217e-016 0 -3.88251e-019 6.10532 -35.0244 4.80097 -0.427806 45.119 0.826452 -8.35825 -15.3445 -22.2261 2.03217e-016 0 3.88251e-019 -10.2674 -32.7626 -11.3879 1.40767 64.9899 -2.04882 8.28889 -16.5473 19.4706 
47.872 81.8147 -1.41359 -7.59443 0.89177 103.604 2.8857 31.2774 -5.05504 2.13913 -3.75426 -0.628953 8.5454 2.47579 4.44443 -16.3905 -26.0568 3.40799 -0 0 0 -0 0 0 -8.91317e-014 -1.63249e-012 2.0884e-014 77.7683 43.7757 -26.946 -28.1163 -31.2617 69.1399 -0.717963 -23.3362 -3.4759 -5.3371e-010 1.05336e-010 -1.36238e-009 -8.92327e-010 1.83519e-010 -2.36678e-009 -5.3371e-010 1.05334e-010 -1.36239e-009 7.73091 5.47488 0.417314 -5.33709e-010 1.05334e-010 -1.36237e-009 2.90554 0.965183 0.102902 -5.33708e-010 1.05334e-010 -1.36237e-009 10.2786 0.731801 0.0259123 -5.33717e-010 1.05337e-010 -1.36236e-009 2.22167 -0.733487 -0.20892 -8.91502e-014 -1.63249e-012 2.05672e-014 -70.2421 28.4741 8.51027 27.9785 -40.526 -84.8554 0.601297 -21.7174 3.20356 4.69077e-011 1.17567e-009 3.06577e-009 4.76428e-011 2.03851e-009 5.29523e-009 4.69055e-011 1.17568e-009 3.06578e-009 -7.73091 5.47488 -0.417314 4.69094e-011 1.17567e-009 3.06578e-009 -2.90554 0.965183 -0.102902 4.69027e-011 1.17567e-009 3.06578e-009 -10.2786 0.731801 -0.0259123 4.69135e-011 1.17568e-009 3.06577e-009 -2.22167 -0.733487 0.20892 -2.03217e-016 0 -3.88251e-019 6.53039 -35.5113 4.05764 -0.461767 46.5431 0.904882 -8.54403 -16.2659 -21.7328 2.03217e-016 0 3.88251e-019 -10.2066 -34.1628 -12.1708 1.48925 65.8449 -2.13168 8.10289 -16.6664 18.9533 
48.9486 81.1913 -1.36587 -7.66871 -0.0575351 103.174 4.26353 31.5342 -5.17836 2.21355 -3.84835 -0.54567 9.07871 2.57821 4.54139 -17.7489 -26.7092 3.11828 -0 0 0 -0 0 0 -1.31045e-013 -2.29198e-012 1.12375e-013 77.4427 44.0945 -23.3603 -27.9653 -30.2449 67.352 -0.665373 -22.4893 -3.33598 1.82536e-010 -7.68531e-011 2.53766e-010 3.12289e-010 -1.29773e-010 4.3924e-010 1.82538e-010 -7.68528e-011 2.53757e-010 7.73091 5.47488 0.417314 1.82536e-010 -7.68527e-011 2.5377e-010 2.90554 0.965183 0.102902 1.82541e-010 -7.68527e-011 2.53771e-010 10.2786 0.731801 0.0259123 1.82531e-010 -7.68502e-011 2.53782e-010 2.22167 -0.733487 -0.20892 -1.31114e-013 -2.29198e-012 1.12059e-013 -71.9706 28.2538 7.43316 28.1785 -39.4687 -82.8812 0.782605 -24.5344 3.67208 -1.35239e-009 -1.08006e-010 -2.83927e-010 -2.3073e-009 -2.0927e-010 -5.19217e-010 -1.35239e-009 -1.08002e-010 -2.83911e-010 -7.73091 5.47488 -0.417314 -1.35238e-009 -1.08003e-010 -2.8392e-010 -2.90554 0.965183 -0.102902 -1.35239e-009 -1.08004e-010 -2.83923e-010 -10.2786 0.731801 -0.0259123 -1.35238e-009 -1.08003e-010 -2.83925e-010 -2.22167 -0.733487 0.20892 -2.03217e-016 0 -3.88251e-019 7.51155 -36.1276 3.18688 -0.505057 48.1607 0.988889 -8.62981 -17.2668 -20.9876 2.03217e-016 0 3.88251e-019 -9.42493 -35.7015 -12.8579 1.61455 67.0409 -2.25669 7.84283 -16.9867 18.1282 
50.0564 80.4447 -1.24985 -7.64889 -1.17862 102.559 5.89644 31.7705 -5.21672 2.22896 -3.98821 -0.421574 9.65037 2.72328 4.66939 -19.2472 -27.367 2.85175 -0 0 0 -0 0 0 -1.71332e-013 -2.89028e-012 2.10371e-013 76.2577 44.2137 -19.1871 -27.7114 -29.017 65.4758 -0.599606 -21.396 -3.15749 8.21884e-010 -2.24815e-010 1.90072e-009 1.3843e-009 -3.83505e-010 3.29772e-009 8.21888e-010 -2.24812e-010 1.90071e-009 7.73091 5.47488 0.417314 8.21883e-010 -2.24813e-010 1.90072e-009 2.90554 0.965183 0.102902 8.21891e-010 -2.24812e-010 1.90072e-009 10.2786 0.731801 0.0259123 8.21881e-010 -2.2481e-010 1.90073e-009 2.22167 -0.733487 -0.20892 -1.71447e-013 -2.89028e-012 2.10063e-013 -73.846 27.8492 6.51369 28.3067 -38.5026 -81.1716 1.02509 -27.5809 4.20766 -2.84629e-009 -1.45218e-009 -3.72302e-009 -4.82345e-009 -2.56404e-009 -6.49094e-009 -2.8463e-009 -1.45218e-009 -3.723e-009 -7.73091 5.47488 -0.417314 -2.84629e-009 -1.45218e-009 -3.72302e-009 -2.90554 0.965183 -0.102902 -2.8463e-009 -1.45218e-009 -3.72302e-009 -10.2786 0.731801 -0.0259123 -2.84629e-009 -1.45218e-009 -3.72302e-009 -2.22167 -0.733487 0.20892 -2.03217e-016 0 -3.88251e-019 8.68587 -36.7212 2.3133 -0.555185 49.8517 1.07787 -8.61215 -18.2112 -20.1136 2.03217e-016 0 3.88251e-019 -8.36422 -37.3445 -13.3914 1.77243 68.3877 -2.41425 7.56253 -17.3356 17.2499 
51.2067 79.6815 -1.08892 -7.58927 -2.21242 101.882 7.47867 31.9578 -5.26506 2.22814 -4.13611 -0.304104 10.1864 2.88324 4.87719 -20.7252 -27.9425 2.77042 -0 0 0 -0 0 0 -1.88979e-013 -3.19343e-012 2.6493e-013 73.7893 44.1598 -14.8376 -27.4913 -28.145 64.295 -0.522636 -20.1009 -2.9482 1.09305e-009 -2.53439e-010 3.12889e-009 1.83106e-009 -4.31732e-010 5.42649e-009 1.09305e-009 -2.53437e-010 3.12888e-009 7.73091 5.47488 0.417314 1.09305e-009 -2.53437e-010 3.12889e-009 2.90554 0.965183 0.102902 1.09306e-009 -2.53436e-010 3.12889e-009 10.2786 0.731801 0.0259123 1.09305e-009 -2.53435e-010 3.1289e-009 2.22167 -0.733487 -0.20892 -1.89122e-013 -3.19343e-012 2.64632e-013 -75.8962 27.2289 6.16322 28.3567 -37.7039 -79.8976 1.29318 -30.4777 4.74443 -3.92887e-009 -2.41426e-009 -5.9109e-009 -6.64957e-009 -4.25172e-009 -1.02956e-008 -3.92888e-009 -2.41425e-009 -5.91087e-009 -7.73091 5.47488 -0.417314 -3.92887e-009 -2.41425e-009 -5.91089e-009 -2.90554 0.965183 -0.102902 -3.92888e-009 -2.41425e-009 -5.91089e-009 -10.2786 0.731801 -0.0259123 -3.92887e-009 -2.41425e-009 -5.9109e-009 -2.22167 -0.733487 0.20892 -2.03217e-016 0 -3.88251e-019 9.70746 -37.1432 1.57141 -0.608413 51.4961 1.17012 -8.50398 -18.959 -19.2355 2.03217e-016 0 3.88251e-019 -7.45386 -39.0603 -13.7052 1.94546 69.6953 -2.58853 7.32969 -17.5405 16.577 
